<svg width="11" height="20" fill="none" xmlns="http://www.w3.org/2000/svg"><path d="M9.5 1H6.832C3.434.966 3 3.069 3 5.345V7H1.5a.445.445 0 0 0-.5.5v3a.445.445 0 0 0 .5.5H3v7.5a.45.45 0 0 0 .503.5h3.055c.295.034.534-.205.44-.5L7 11h2.5a.445.445 0 0 0 .5-.5v-3a.444.444 0 0 0-.5-.5H6.997L7 5.5c.097-.639.097-.535.69-.5h1.789c.139-.031.287-.014.391-.115.104-.101.164-.239.129-.385v-3A.445.445 0 0 0 9.5 1Zm-.535 2.944-1.254-.048c-1.553 0-1.683.843-1.683 1.706l-.004 1.896a.534.534 0 0 0 .534.535H9v1.932H6.56a.535.535 0 0 0-.535.534L6.024 18H4v-7.5c0-.295-.201-.534-.497-.534H2V8.034h1.503a.534.534 0 0 0 .378-.156c.1-.101.118-.237.118-.379V5.344c0-2.242.453-3.31 2.832-3.31h2.133l.001 1.91Z" fill="#242424"/></svg>