<svg width="20" height="20" fill="none" xmlns="http://www.w3.org/2000/svg"><path d="M10 5.385a4.615 4.615 0 1 0 0 9.23 4.615 4.615 0 0 0 0-9.23Zm0 7.692a3.077 3.077 0 1 1 0-6.154 3.077 3.077 0 0 1 0 6.154ZM14.615 0h-9.23A5.39 5.39 0 0 0 0 5.385v9.23A5.39 5.39 0 0 0 5.385 20h9.23A5.39 5.39 0 0 0 20 14.615v-9.23A5.39 5.39 0 0 0 14.615 0Zm3.847 14.615a3.846 3.846 0 0 1-3.847 3.847h-9.23a3.846 3.846 0 0 1-3.847-3.847v-9.23a3.846 3.846 0 0 1 3.847-3.847h9.23a3.846 3.846 0 0 1 3.847 3.847v9.23ZM16.154 5a1.154 1.154 0 1 1-2.308 0 1.154 1.154 0 0 1 2.308 0Z" fill="#242424"/></svg>