<svg width="145" height="51" fill="none" xmlns="http://www.w3.org/2000/svg"><g clip-path="url('#clip0_310_2257')" fill="#fff"><path d="M8.03 9.445H0v-6.84h23.736v6.84h-8.031v41.069H8.023V9.445h.008ZM27.716 4.244c0-2.467 1.742-4.244 4.26-4.244 2.516 0 4.328 1.777 4.328 4.244 0 2.324-1.812 4.176-4.329 4.176-2.517 0-4.259-1.784-4.259-4.176Zm.906 10.197h6.768v36.073h-6.768V14.44ZM48.307 9.445h-8.022v-6.84H64.02v6.84h-8.03v41.069h-7.683V9.445ZM68 4.244C68 1.777 69.744 0 72.26 0c2.517 0 4.329 1.777 4.329 4.244 0 2.324-1.812 4.176-4.329 4.176-2.517 0-4.26-1.784-4.26-4.176Zm.907 10.197h6.768v36.073h-6.768V14.44ZM88.592 9.445h-8.03v-6.84h23.735v6.84h-8.03v41.069h-7.675V9.445ZM108.278 4.244c0-2.467 1.742-4.244 4.259-4.244 2.517 0 4.329 1.777 4.329 4.244 0 2.324-1.812 4.176-4.329 4.176-2.509 0-4.259-1.784-4.259-4.176Zm.906 10.197h6.768v36.073h-6.768V14.44ZM125.276 48.122c-1.928-2.05-2.896-4.95-2.896-8.693v-25.74c0-3.742.968-6.635 2.896-8.693 1.928-2.05 4.739-3.082 8.41-3.082 3.678 0 6.482 1.025 8.41 3.082 1.928 2.05 2.896 4.95 2.896 8.694v5.064h-7.264V13.21c0-2.968-1.277-4.449-3.841-4.449-2.563 0-3.841 1.48-3.841 4.45v26.763c0 2.923 1.278 4.381 3.841 4.381 2.556 0 3.841-1.458 3.841-4.38v-7.328h7.264v6.773c0 3.743-.968 6.636-2.896 8.694-1.928 2.05-4.739 3.082-8.41 3.082-3.671 0-6.474-1.025-8.41-3.075Z"/></g><defs><clipPath id="clip0_310_2257"><path fill="#fff" d="M0 0h145v51H0z"/></clipPath></defs></svg>