<svg width="32" height="32" viewBox="0 0 32 32" fill="none" xmlns="http://www.w3.org/2000/svg">
<g id="et:twitter" clip-path="url(#clip0_655_998)">
<g id="Group">
<path id="Vector" d="M15.9998 -0.0332031C7.15884 -0.0332031 -0.0351562 7.1588 -0.0351562 16.0008C-0.0351562 24.8428 7.15884 32.0348 15.9998 32.0348C24.8408 32.0348 32.0348 24.8428 32.0348 16.0008C32.0348 7.1588 24.8408 -0.0332031 15.9998 -0.0332031ZM15.9998 30.9668C7.74784 30.9668 1.03484 24.2528 1.03484 16.0008C1.03484 7.7488 7.74784 1.0348 15.9998 1.0348C24.2518 1.0348 30.9648 7.7488 30.9648 16.0008C30.9648 24.2528 24.2518 30.9668 15.9998 30.9668Z" fill="#242424"/>
</g>
<path id="Vector_2" d="M16 11.3846C15.0872 11.3846 14.1948 11.6553 13.4358 12.1624C12.6768 12.6696 12.0853 13.3904 11.7359 14.2338C11.3866 15.0771 11.2952 16.0051 11.4733 16.9004C11.6514 17.7957 12.091 18.6181 12.7364 19.2636C13.3819 19.909 14.2043 20.3486 15.0996 20.5267C15.9949 20.7048 16.9229 20.6134 17.7662 20.2641C18.6096 19.9147 19.3304 19.3232 19.8376 18.5642C20.3447 17.8052 20.6154 16.9128 20.6154 16C20.6141 14.7763 20.1274 13.6031 19.2622 12.7378C18.3969 11.8726 17.2237 11.3859 16 11.3846ZM16 19.0769C15.3914 19.0769 14.7966 18.8965 14.2906 18.5584C13.7846 18.2203 13.3902 17.7397 13.1573 17.1775C12.9244 16.6153 12.8635 15.9966 12.9822 15.3997C13.1009 14.8029 13.394 14.2546 13.8243 13.8243C14.2546 13.394 14.8029 13.1009 15.3997 12.9822C15.9966 12.8635 16.6153 12.9244 17.1775 13.1573C17.7397 13.3902 18.2203 13.7846 18.5584 14.2906C18.8965 14.7966 19.0769 15.3914 19.0769 16C19.0769 16.8161 18.7527 17.5987 18.1757 18.1757C17.5987 18.7527 16.8161 19.0769 16 19.0769ZM20.6154 6H11.3846C9.957 6.00153 8.58828 6.56932 7.5788 7.5788C6.56932 8.58828 6.00153 9.957 6 11.3846V20.6154C6.00153 22.043 6.56932 23.4117 7.5788 24.4212C8.58828 25.4307 9.957 25.9985 11.3846 26H20.6154C22.043 25.9985 23.4117 25.4307 24.4212 24.4212C25.4307 23.4117 25.9985 22.043 26 20.6154V11.3846C25.9985 9.957 25.4307 8.58828 24.4212 7.5788C23.4117 6.56932 22.043 6.00153 20.6154 6ZM24.4615 20.6154C24.4615 21.6354 24.0563 22.6137 23.335 23.335C22.6137 24.0563 21.6354 24.4615 20.6154 24.4615H11.3846C10.3646 24.4615 9.38627 24.0563 8.66497 23.335C7.94368 22.6137 7.53846 21.6354 7.53846 20.6154V11.3846C7.53846 10.3646 7.94368 9.38627 8.66497 8.66497C9.38627 7.94368 10.3646 7.53846 11.3846 7.53846H20.6154C21.6354 7.53846 22.6137 7.94368 23.335 8.66497C24.0563 9.38627 24.4615 10.3646 24.4615 11.3846V20.6154ZM22.1538 11C22.1538 11.2282 22.0862 11.4513 21.9594 11.641C21.8326 11.8308 21.6524 11.9787 21.4416 12.066C21.2307 12.1533 20.9987 12.1762 20.7749 12.1317C20.5511 12.0872 20.3455 11.9773 20.1841 11.8159C20.0227 11.6545 19.9128 11.4489 19.8683 11.2251C19.8238 11.0013 19.8467 10.7693 19.934 10.5584C20.0213 10.3476 20.1692 10.1674 20.359 10.0406C20.5487 9.91383 20.7718 9.84615 21 9.84615C21.306 9.84615 21.5995 9.96772 21.8159 10.1841C22.0323 10.4005 22.1538 10.694 22.1538 11Z" fill="#242424"/>
</g>
<defs>
<clipPath id="clip0_655_998">
<rect width="32" height="32" fill="white"/>
</clipPath>
</defs>
</svg>
