<svg width="145" height="51" viewBox="0 0 145 51" fill="none" xmlns="http://www.w3.org/2000/svg">
<g clip-path="url(#clip0_310_2257)">
<path d="M8.0306 9.44542H0V2.60449H23.7356V9.44542H15.705V50.5138H8.02286V9.44542H8.0306Z" fill="white"/>
<path d="M27.7161 4.24426C27.7161 1.77667 29.4585 0 31.9753 0C34.4921 0 36.3042 1.77667 36.3042 4.24426C36.3042 6.56759 34.4921 8.42019 31.9753 8.42019C29.4585 8.42019 27.7161 6.63593 27.7161 4.24426ZM28.6221 14.4411H35.3904V50.5135H28.6221V14.4411Z" fill="white"/>
<path d="M48.3075 9.44542H40.2847V2.60449H64.0202V9.44542H55.9896V50.5138H48.3075V9.44542Z" fill="white"/>
<path d="M68.0007 4.24426C68.0007 1.77667 69.7431 0 72.26 0C74.7768 0 76.5889 1.77667 76.5889 4.24426C76.5889 6.56759 74.7768 8.42019 72.26 8.42019C69.7431 8.42019 68.0007 6.63593 68.0007 4.24426ZM68.9068 14.4411H75.6751V50.5135H68.9068V14.4411Z" fill="white"/>
<path d="M88.5921 9.44542H80.5615V2.60449H104.297V9.44542H96.2665V50.5138H88.5921V9.44542Z" fill="white"/>
<path d="M108.278 4.24426C108.278 1.77667 110.02 0 112.537 0C115.054 0 116.866 1.77667 116.866 4.24426C116.866 6.56759 115.054 8.42019 112.537 8.42019C110.028 8.42019 108.278 6.63593 108.278 4.24426ZM109.184 14.4411H115.952V50.5135H109.184V14.4411Z" fill="white"/>
<path d="M125.276 48.1221C123.348 46.0721 122.38 43.1717 122.38 39.4286V13.6897C122.38 9.94654 123.348 7.05376 125.276 4.99617C127.204 2.94617 130.015 1.91357 133.686 1.91357C137.364 1.91357 140.168 2.93857 142.096 4.99617C144.024 7.04617 144.992 9.94654 144.992 13.6897V18.7539H137.728V13.2114C137.728 10.2426 136.451 8.76209 133.887 8.76209C131.324 8.76209 130.046 10.2426 130.046 13.2114V39.9752C130.046 42.8984 131.324 44.3562 133.887 44.3562C136.443 44.3562 137.728 42.8984 137.728 39.9752V32.6484H144.992V39.421C144.992 43.1641 144.024 46.0569 142.096 48.1145C140.168 50.1645 137.357 51.1971 133.686 51.1971C130.015 51.1971 127.212 50.1721 125.276 48.1221Z" fill="white"/>
</g>
<defs>
<clipPath id="clip0_310_2257">
<rect width="145" height="51" fill="white"/>
</clipPath>
</defs>
</svg>
